<?xml version="1.0" encoding="utf-8"?>
<!-- Generator: Adobe Illustrator 21.0.0, SVG Export Plug-In . SVG Version: 6.00 Build 0)  -->
<svg version="1.1" id="Layer_1" xmlns="http://www.w3.org/2000/svg" xmlns:xlink="http://www.w3.org/1999/xlink" x="0px" y="0px"
	 viewBox="0 0 464 464" style="enable-background:new 0 0 464 464;" xml:space="preserve">
<style type="text/css">
	.st0{fill:#EBEBEB;}
</style>
<path class="st0" d="M17.4,442c1,0.7,2.3,0.9,3.6,0.9c1,0,2.2-0.3,3.1-0.8l138.8-71.8L297,442.1c1.9,1,4.2,1,6.1,0.1l143.1-73.3
	c2.3-1.1,3.7-3.4,3.8-5.8v-335c-0.1-2.3-1.4-4.4-3.4-5.6c-2-1.2-4.4-1.3-6.6-0.3L300,94L165.9,23.4c-1.9-1-4.1-1-6,0L17.9,95.6
	c-2.3,1.1-3.8,3.4-3.9,5.8v334.9C14.1,438.7,15.3,440.8,17.4,442z M293.1,425.1l-124-66.1V40l124,65V425.1z M436.8,359.1L306.2,426
	V105.8l130.6-66.9V359.1z M27.2,105.4l128.7-65.5v319.1L27.2,425.6V105.4z"/>
<path class="st0" d="M332.5,172.9c1,0,2.1-0.3,3-0.8l79.8-41c2.2-1,3.5-3.2,3.7-5.5c0.1-2.3-1-4.6-3-5.9c-2-1.3-4.5-1.4-6.6-0.3
	l-79.8,41c-2.7,1.4-4.1,4.4-3.4,7.4C326.8,170.8,329.4,172.9,332.5,172.9z"/>
<path class="st0" d="M332.5,219.3c1,0,2.1-0.3,3-0.8l79.8-41c2.2-1,3.5-3.2,3.7-5.5c0.2-2.3-1-4.6-3-5.9c-2-1.3-4.5-1.4-6.6-0.3
	l-79.8,41c-2.7,1.4-4.1,4.4-3.4,7.4C327,217.3,329.4,219.3,332.5,219.3z"/>
<path class="st0" d="M409.3,212.3l-79.8,41c-2.1,1-3.5,3.2-3.6,5.5c-0.1,2.3,1,4.6,3,5.8c2,1.3,4.5,1.4,6.6,0.3l79.8-41
	c2.2-1,3.5-3.2,3.7-5.5c0.2-2.3-1-4.6-3-5.9C414,211.2,411.4,211.2,409.3,212.3z"/>
<path class="st0" d="M128,231.8l-79.8,41c-2.1,1-3.5,3.2-3.6,5.5c-0.1,2.3,1,4.6,3,5.8c2,1.3,4.5,1.4,6.6,0.3l79.8-41
	c2.1-1,3.5-3.2,3.6-5.5c0.1-2.3-1-4.6-3-5.8C132.6,230.8,130,230.7,128,231.8z"/>
<path class="st0" d="M128,278.2l-79.8,41c-2.1,1-3.5,3.2-3.6,5.5c-0.1,2.3,1,4.6,3,5.8c2,1.3,4.5,1.4,6.6,0.3l79.8-41
	c2.1-1,3.5-3.2,3.6-5.5c0.1-2.3-1-4.6-3-5.8C132.6,277.2,130,277,128,278.2z"/>
<path class="st0" d="M271.9,208.7l-73.8-38.8c-3.2-1.7-7.1-0.4-8.8,2.8c-1.7,3.2-0.5,7.1,2.7,8.8l73.9,38.8c2.1,1.1,4.6,1,6.6-0.2
	c2-1.2,3.2-3.5,3.1-5.8C275.4,212,274.1,209.8,271.9,208.7z"/>
<path class="st0" d="M192.1,125.9l73.9,38.8c2.1,1.1,4.6,1,6.6-0.2c2-1.2,3.2-3.5,3.1-5.8c-0.1-2.3-1.5-4.5-3.6-5.5l-73.9-38.9
	c-3.2-1.7-7.2-0.5-8.9,2.7C187.6,120.2,188.8,124.2,192.1,125.9z"/>
<path class="st0" d="M134.2,102.2c-1.9-1.2-4.3-1.3-6.3-0.3l-79.5,41c-2.2,1.1-3.4,3.5-3.3,5.8v55.6c-0.1,2.3,1,4.4,2.9,5.6
	c1,0.7,2.2,0.9,3.3,0.9c1,0,2.1-0.3,2.9-0.8l79.6-41c2.2-1.1,3.5-3.4,3.4-5.8v-55.5C137.2,105.5,136.1,103.4,134.2,102.2z
	 M123.9,159.4l-65.8,34.2v-40.9l65.8-34.2V159.4z"/>
<path class="st0" d="M271.8,273.6l-73.8-38.8c-2-1-4.4-1-6.3,0.2c-2,1.2-3.1,3.4-3,5.6v64.9c-0.1,2.4,1.2,4.7,3.4,5.8l73.8,38.8
	c0.9,0.5,2,0.8,3,0.8c1.1,0,2.3-0.4,3.3-0.9c2-1.2,3.1-3.4,3-5.6v-64.9C275.3,277,274,274.9,271.8,273.6z M262.1,333.5l-60.1-31.9
	v-50.1l60.1,31.9V333.5z"/>
</svg>
